<svg viewBox="0 0 25 30" xmlns="http://www.w3.org/2000/svg"><path d="M1.5 0a1 1 0 0 1 1 1v5.5c0 .557.192 1.315.7 1.917.36.424.918.82 1.8.993V1a1 1 0 0 1 2 0v8.41c.882-.173 1.44-.57 1.8-.993.508-.602.7-1.36.7-1.917V1a1 1 0 1 1 2 0v5.5c0 .943-.308 2.185-1.174 3.208-.74.874-1.833 1.526-3.326 1.727V29a1 1 0 1 1-2 0V11.435c-1.493-.2-2.586-.853-3.326-1.727A5.068 5.068 0 0 1 .5 6.5V1a1 1 0 0 1 1-1zm18.207.293A1 1 0 0 0 18 1v28a1 1 0 1 0 2 0v-9h3.5a1 1 0 0 0 1-1c0-5.492-.763-9.72-1.734-12.79-.962-3.04-2.15-5.009-3.059-5.917zM22.491 18H20V4.519c.288.652.58 1.416.86 2.295.845 2.674 1.545 6.37 1.631 11.186z" fill="#fff"/></svg>
