<svg viewBox="0 0 29 31" xmlns="http://www.w3.org/2000/svg"><path d="M11.607-.01c-1.76 0-3.187 1.525-3.187 3.407 0 1.882 1.426 3.407 3.187 3.407 1.76 0 3.187-1.524 3.187-3.407S13.367-.01 11.607-.01zm0 5.476c-1.07 0-1.936-.926-1.936-2.07 0-1.142.867-2.069 1.935-2.069 1.07 0 1.936.927 1.936 2.07 0 1.143-.866 2.069-1.936 2.069zm9.17 13.007c-1.707 0-3.09 1.478-3.09 3.301 0 1.824 1.384 3.302 3.09 3.302 1.705 0 3.087-1.478 3.087-3.302 0-1.823-1.383-3.301-3.088-3.301zm0 5.013c-.885 0-1.602-.766-1.602-1.711 0-.946.717-1.712 1.601-1.712s1.602.766 1.602 1.712c0 .945-.718 1.711-1.602 1.711zM5.885 20.113c0-1.383 1.047-2.503 2.34-2.503 1.295 0 2.342 1.12 2.342 2.503s-1.047 2.503-2.341 2.503c-1.294 0-2.341-1.12-2.341-2.503zm3.08-.149a.083.083 0 0 1 .03.002l-.01-.001h-.02zM18.5 9.763s3.04-.839 6.178 1.493l.247.205c.805.663 1.462 1.204.905 1.918l-.01.011c-.34.336-.639.633-1.706-.535-1.053-.76-2.72-1.899-5.614-1.442-1.128.237-1.961.551-3.556 2.15-1.593 1.598-3.972 2.725-6.497 2.489-2.525-.236-3.849-1.258-5.246-2.542-.294-.42-.294-.865-.123-1.127.171-.262.833-.525 1.201-.132.368.394 2.109 1.966 3.825 2.07 1.717.105 3.433.21 5.737-1.965 2.19-2.064 3.339-2.31 4.477-2.554l.182-.04zm10.146-1.606v18.658s.058 1.498-.872 2.636c-.93 1.14-2.057 1.553-2.916 1.556-.858.002-20.581.002-20.581.002s-1.281.082-2.375-.856c-1.095-.94-1.548-2-1.548-3.337V8.279c.003-.189.052-.777.588-.777h.307s.675-.026.675.813v18.133s-.111 1.049.453 1.848c.564.799 1.226.943 1.606 1.009.478.026 20.655.026 20.655.026s.809.092 1.617-.603c.748-.72.81-1.559.822-1.887.01-.254.004-11.742.002-16.889V8.241c0-.182.044-.739.537-.739h.506c.15.005.524.077.524.655z" fill="#fff"/></svg>
